<svg xmlns="http://www.w3.org/2000/svg" xmlns:xlink="http://www.w3.org/1999/xlink" width="320" zoomAndPan="magnify" viewBox="0 0 240 239.999995" height="320" preserveAspectRatio="xMidYMid meet" version="1.0"><defs><g/><clipPath id="812b2f0187"><path d="M 141 107 L 187 107 L 187 159 L 141 159 Z M 141 107 " clip-rule="nonzero"/></clipPath><clipPath id="d341a48af0"><path d="M 205.742188 80.921875 L 186.542969 162.171875 L 129.136719 148.605469 L 148.339844 67.355469 Z M 205.742188 80.921875 " clip-rule="nonzero"/></clipPath><clipPath id="a3bae214de"><path d="M 186.621094 161.839844 L 205.820312 80.589844 L 148.417969 67.023438 L 129.214844 148.273438 Z M 186.621094 161.839844 " clip-rule="nonzero"/></clipPath><clipPath id="99ee05a49e"><path d="M 141 106 L 188 106 L 188 160 L 141 160 Z M 141 106 " clip-rule="nonzero"/></clipPath><clipPath id="f834f8d5a1"><path d="M 205.742188 80.921875 L 186.542969 162.171875 L 129.136719 148.605469 L 148.339844 67.355469 Z M 205.742188 80.921875 " clip-rule="nonzero"/></clipPath><clipPath id="eefd1b0c51"><path d="M 186.621094 161.839844 L 205.820312 80.589844 L 148.417969 67.023438 L 129.214844 148.273438 Z M 186.621094 161.839844 " clip-rule="nonzero"/></clipPath><clipPath id="7352eea0f4"><path d="M 156 102 L 195 102 L 195 125 L 156 125 Z M 156 102 " clip-rule="nonzero"/></clipPath><clipPath id="bf32ca83bd"><path d="M 205.742188 80.921875 L 186.542969 162.171875 L 129.136719 148.605469 L 148.339844 67.355469 Z M 205.742188 80.921875 " clip-rule="nonzero"/></clipPath><clipPath id="265afdae1d"><path d="M 186.621094 161.839844 L 205.820312 80.589844 L 148.417969 67.023438 L 129.214844 148.273438 Z M 186.621094 161.839844 " clip-rule="nonzero"/></clipPath><clipPath id="8b72045c4f"><path d="M 155 101 L 196 101 L 196 126 L 155 126 Z M 155 101 " clip-rule="nonzero"/></clipPath><clipPath id="e47a9cef76"><path d="M 205.742188 80.921875 L 186.542969 162.171875 L 129.136719 148.605469 L 148.339844 67.355469 Z M 205.742188 80.921875 " clip-rule="nonzero"/></clipPath><clipPath id="447f0ec7a1"><path d="M 186.621094 161.839844 L 205.820312 80.589844 L 148.417969 67.023438 L 129.214844 148.273438 Z M 186.621094 161.839844 " clip-rule="nonzero"/></clipPath><clipPath id="5b1b5d6747"><path d="M 143 74 L 172 74 L 172 103 L 143 103 Z M 143 74 " clip-rule="nonzero"/></clipPath><clipPath id="060db632e7"><path d="M 205.742188 80.921875 L 186.542969 162.171875 L 129.136719 148.605469 L 148.339844 67.355469 Z M 205.742188 80.921875 " clip-rule="nonzero"/></clipPath><clipPath id="78c64837ee"><path d="M 186.621094 161.839844 L 205.820312 80.589844 L 148.417969 67.023438 L 129.214844 148.273438 Z M 186.621094 161.839844 " clip-rule="nonzero"/></clipPath><clipPath id="6b5c01101c"><path d="M 142 73 L 173 73 L 173 104 L 142 104 Z M 142 73 " clip-rule="nonzero"/></clipPath><clipPath id="850e400012"><path d="M 205.742188 80.921875 L 186.542969 162.171875 L 129.136719 148.605469 L 148.339844 67.355469 Z M 205.742188 80.921875 " clip-rule="nonzero"/></clipPath><clipPath id="ab92c64091"><path d="M 186.621094 161.839844 L 205.820312 80.589844 L 148.417969 67.023438 L 129.214844 148.273438 Z M 186.621094 161.839844 " clip-rule="nonzero"/></clipPath><clipPath id="3391eb457e"><path d="M 171 86 L 195 86 L 195 97 L 171 97 Z M 171 86 " clip-rule="nonzero"/></clipPath><clipPath id="eff97720ed"><path d="M 205.742188 80.921875 L 186.542969 162.171875 L 129.136719 148.605469 L 148.339844 67.355469 Z M 205.742188 80.921875 " clip-rule="nonzero"/></clipPath><clipPath id="b4ee758b7c"><path d="M 186.621094 161.839844 L 205.820312 80.589844 L 148.417969 67.023438 L 129.214844 148.273438 Z M 186.621094 161.839844 " clip-rule="nonzero"/></clipPath><clipPath id="0dbd35146a"><path d="M 170 85 L 196 85 L 196 98 L 170 98 Z M 170 85 " clip-rule="nonzero"/></clipPath><clipPath id="72a0059c34"><path d="M 205.742188 80.921875 L 186.542969 162.171875 L 129.136719 148.605469 L 148.339844 67.355469 Z M 205.742188 80.921875 " clip-rule="nonzero"/></clipPath><clipPath id="ac4b261b1d"><path d="M 186.621094 161.839844 L 205.820312 80.589844 L 148.417969 67.023438 L 129.214844 148.273438 Z M 186.621094 161.839844 " clip-rule="nonzero"/></clipPath><clipPath id="0cb2b64b03"><path d="M 143 83 L 150 83 L 150 96 L 143 96 Z M 143 83 " clip-rule="nonzero"/></clipPath><clipPath id="2aaa07e995"><path d="M 205.742188 80.921875 L 186.542969 162.171875 L 129.136719 148.605469 L 148.339844 67.355469 Z M 205.742188 80.921875 " clip-rule="nonzero"/></clipPath><clipPath id="8d118377d1"><path d="M 186.621094 161.839844 L 205.820312 80.589844 L 148.417969 67.023438 L 129.214844 148.273438 Z M 186.621094 161.839844 " clip-rule="nonzero"/></clipPath><clipPath id="639b1cda91"><path d="M 143 82 L 151 82 L 151 96 L 143 96 Z M 143 82 " clip-rule="nonzero"/></clipPath><clipPath id="b665e5bd20"><path d="M 205.742188 80.921875 L 186.542969 162.171875 L 129.136719 148.605469 L 148.339844 67.355469 Z M 205.742188 80.921875 " clip-rule="nonzero"/></clipPath><clipPath id="c99e8eab99"><path d="M 186.621094 161.839844 L 205.820312 80.589844 L 148.417969 67.023438 L 129.214844 148.273438 Z M 186.621094 161.839844 " clip-rule="nonzero"/></clipPath></defs><g clip-path="url(#812b2f0187)"><g clip-path="url(#d341a48af0)"><g clip-path="url(#a3bae214de)"><path fill="#000000" d="M 141.96875 107.21875 C 146.445312 109.160156 150.539062 111.71875 154.25 114.898438 C 157.957031 118.078125 161.117188 121.738281 163.730469 125.875 C 165.035156 127.835938 166.015625 129.949219 166.679688 132.214844 C 167.277344 134.496094 167.335938 136.882812 167.632812 139.226562 C 168.164062 142.890625 169.082031 146.453125 170.386719 149.910156 C 171.269531 152.355469 172.300781 154.851562 174.160156 156.664062 C 176.015625 158.476562 178.871094 159.464844 181.273438 158.414062 C 182.738281 157.660156 183.851562 156.550781 184.613281 155.085938 C 187.515625 150.101562 187.609375 143.796875 185.738281 138.351562 C 183.867188 132.90625 180.207031 128.21875 176.003906 124.300781 C 166.871094 115.789062 155.121094 110.535156 143.023438 107.523438 " fill-opacity="1" fill-rule="nonzero"/></g></g></g><g clip-path="url(#99ee05a49e)"><g clip-path="url(#f834f8d5a1)"><g clip-path="url(#eefd1b0c51)"><path fill="#000000" d="M 142.367188 106.492188 C 151.6875 110.628906 159.871094 117.566406 165.042969 126.433594 C 168.074219 131.644531 167.804688 136.890625 169.070312 142.613281 C 170.171875 147.5625 172.625 158.449219 179.394531 158.011719 C 183.207031 157.765625 185.03125 153.023438 185.734375 149.878906 C 186.453125 146.414062 186.300781 142.988281 185.277344 139.609375 C 183.566406 133.824219 179.761719 128.945312 175.441406 124.910156 C 166.355469 116.433594 154.769531 111.378906 142.84375 108.339844 C 142.621094 108.285156 142.449219 108.164062 142.328125 107.964844 C 142.210938 107.769531 142.175781 107.558594 142.226562 107.335938 C 142.28125 107.113281 142.40625 106.9375 142.601562 106.816406 C 142.796875 106.695312 143.003906 106.660156 143.226562 106.714844 C 153.378906 109.296875 163.21875 113.296875 171.65625 119.609375 C 179.113281 125.171875 186.230469 132.882812 187.597656 142.511719 C 188.453125 148.539062 186.128906 161.738281 177.328125 159.4375 C 173.554688 158.449219 171.46875 154.945312 170.109375 151.554688 C 168.195312 146.636719 166.996094 141.550781 166.507812 136.289062 C 165.113281 123.335938 152.765625 112.929688 141.570312 107.957031 C 140.597656 107.519531 141.398438 106.054688 142.367188 106.492188 Z M 142.367188 106.492188 " fill-opacity="1" fill-rule="nonzero"/></g></g></g><g clip-path="url(#7352eea0f4)"><g clip-path="url(#bf32ca83bd)"><g clip-path="url(#265afdae1d)"><path fill="#000000" d="M 157.0625 105.976562 C 167.992188 108.503906 176.535156 119.136719 186.785156 123.691406 C 188.085938 124.382812 189.46875 124.65625 190.933594 124.523438 C 193.777344 124.039062 195.351562 120.671875 194.832031 117.851562 C 194.308594 115.03125 192.253906 112.761719 190.070312 110.929688 C 187.878906 109.121094 185.511719 107.59375 182.960938 106.347656 C 180.414062 105.101562 177.757812 104.167969 174.992188 103.550781 C 172.222656 102.929688 169.421875 102.644531 166.585938 102.683594 C 163.75 102.726562 160.957031 103.101562 158.203125 103.800781 C 157.628906 103.890625 157.144531 104.152344 156.75 104.585938 C 156.417969 105.035156 156.523438 105.835938 157.0625 105.976562 " fill-opacity="1" fill-rule="nonzero"/></g></g></g><g clip-path="url(#8b72045c4f)"><g clip-path="url(#e47a9cef76)"><g clip-path="url(#447f0ec7a1)"><path fill="#000000" d="M 157.253906 105.164062 C 163.25 106.695312 168.296875 110.15625 173.199219 113.804688 C 176.722656 116.414062 190.171875 128.382812 193.582031 121.3125 C 196.992188 114.238281 185.25 108.058594 180.324219 106.070312 C 176.539062 104.546875 172.605469 103.703125 168.523438 103.539062 C 166.882812 103.460938 165.246094 103.507812 163.609375 103.671875 C 162.597656 103.777344 161.589844 103.882812 160.582031 104.109375 C 160.660156 104.09375 157.03125 104.871094 157.640625 105.371094 C 158.464844 106.054688 157.320312 107.257812 156.492188 106.582031 C 153.875 104.433594 158.03125 102.953125 159.558594 102.625 C 164.21875 101.644531 168.890625 101.570312 173.570312 102.410156 C 181.105469 103.75 191.863281 108.105469 195.066406 115.808594 C 196.222656 118.570312 195.894531 122.058594 193.539062 124.148438 C 190.800781 126.554688 187.273438 124.976562 184.480469 123.523438 C 174.90625 118.53125 167.59375 109.527344 156.871094 106.789062 C 156.648438 106.734375 156.476562 106.613281 156.355469 106.414062 C 156.238281 106.21875 156.203125 106.007812 156.253906 105.785156 C 156.308594 105.5625 156.433594 105.386719 156.628906 105.265625 C 156.824219 105.144531 157.03125 105.109375 157.253906 105.164062 Z M 157.253906 105.164062 " fill-opacity="1" fill-rule="nonzero"/></g></g></g><g clip-path="url(#5b1b5d6747)"><g clip-path="url(#060db632e7)"><g clip-path="url(#78c64837ee)"><path fill="#000000" d="M 143.425781 102.761719 C 145.003906 103.066406 146.597656 102.390625 148.046875 101.699219 C 153.835938 98.949219 159.316406 95.679688 164.492188 91.890625 C 166.59375 90.328125 168.652344 88.710938 170.046875 86.527344 C 171.445312 84.34375 172.066406 81.511719 171.070312 79.117188 C 170.550781 78 169.855469 77.011719 168.980469 76.144531 C 168.441406 75.527344 167.804688 75.03125 167.078125 74.660156 C 165.375 73.894531 163.300781 74.652344 161.988281 75.980469 C 160.679688 77.3125 159.953125 79.113281 159.269531 80.828125 L 155.085938 91.390625 C 154.085938 93.902344 153.050781 96.519531 151.328125 98.648438 C 149.601562 100.78125 146.125 102.738281 143.40625 102.753906 " fill-opacity="1" fill-rule="nonzero"/></g></g></g><g clip-path="url(#6b5c01101c)"><g clip-path="url(#850e400012)"><g clip-path="url(#ab92c64091)"><path fill="#000000" d="M 143.363281 101.921875 C 146.875 102.1875 150.457031 99.625 153.4375 97.96875 C 156.421875 96.3125 159.28125 94.542969 162.070312 92.582031 C 165.148438 90.441406 168.675781 88.125 170.089844 84.476562 C 170.511719 83.484375 170.683594 82.449219 170.609375 81.375 C 170.535156 80.296875 170.222656 79.296875 169.667969 78.375 C 168.148438 75.957031 165.054688 74.214844 162.554688 76.535156 C 160.195312 78.722656 159.25 83.015625 158.097656 85.921875 C 156.828125 89.132812 155.6875 92.460938 154.167969 95.566406 C 152.066406 99.9375 148.445312 103.199219 143.460938 103.597656 C 142.390625 103.675781 142.335938 102.007812 143.398438 101.929688 C 148.832031 101.527344 151.761719 97.269531 153.699219 92.628906 C 155.523438 88.253906 157.066406 83.742188 158.953125 79.390625 C 161.464844 73.613281 166.871094 71.371094 170.863281 77.125 C 175.0625 83.167969 169.699219 89.09375 164.925781 92.617188 C 161.378906 95.214844 157.675781 97.5625 153.820312 99.664062 C 150.765625 101.335938 147.082031 103.851562 143.464844 103.578125 C 142.40625 103.492188 142.335938 101.828125 143.402344 101.910156 Z M 143.363281 101.921875 " fill-opacity="1" fill-rule="nonzero"/></g></g></g><g clip-path="url(#3391eb457e)"><g clip-path="url(#eff97720ed)"><g clip-path="url(#b4ee758b7c)"><path fill="#000000" d="M 171.050781 96.394531 L 178.863281 96.820312 C 181.699219 96.972656 184.582031 97.121094 187.339844 96.414062 C 188.945312 95.949219 190.5 95.347656 191.996094 94.601562 C 193.304688 94 194.804688 93.132812 194.894531 91.691406 C 194.957031 90.59375 194.132812 89.660156 193.277344 88.984375 C 192.496094 88.382812 191.652344 87.882812 190.75 87.488281 C 189.84375 87.09375 188.90625 86.816406 187.9375 86.652344 C 186.964844 86.492188 185.984375 86.449219 185.003906 86.527344 C 184.019531 86.605469 183.058594 86.800781 182.125 87.117188 C 177.945312 88.574219 174.050781 93.136719 171.066406 96.394531 " fill-opacity="1" fill-rule="nonzero"/></g></g></g><g clip-path="url(#0dbd35146a)"><g clip-path="url(#72a0059c34)"><g clip-path="url(#ac4b261b1d)"><path fill="#000000" d="M 171.023438 95.554688 C 175.023438 95.773438 179.09375 96.222656 183.101562 96.105469 C 185.128906 96.0625 187.09375 95.695312 188.996094 95 C 189.917969 94.738281 190.785156 94.355469 191.601562 93.859375 C 192.5625 93.628906 192.976562 92.949219 192.84375 91.824219 C 193.773438 90.523438 193.496094 89.613281 192.007812 89.101562 C 183.726562 83.746094 176.875 91.296875 171.652344 96.96875 C 171.496094 97.136719 171.300781 97.222656 171.070312 97.226562 C 170.84375 97.234375 170.644531 97.15625 170.480469 97 C 170.3125 96.839844 170.226562 96.644531 170.222656 96.414062 C 170.214844 96.183594 170.292969 95.984375 170.449219 95.820312 C 173.71875 92.265625 177.191406 87.96875 181.894531 86.328125 C 185.984375 84.890625 192.492188 85.722656 195.066406 89.660156 C 197.453125 93.304688 192.589844 95.347656 189.945312 96.410156 C 184.019531 98.773438 177.261719 97.566406 171.074219 97.230469 C 170.015625 97.171875 169.953125 95.503906 171.019531 95.554688 Z M 171.023438 95.554688 " fill-opacity="1" fill-rule="nonzero"/></g></g></g><g clip-path="url(#0cb2b64b03)"><g clip-path="url(#2aaa07e995)"><g clip-path="url(#8d118377d1)"><path fill="#000000" d="M 144.46875 94.570312 L 145.675781 93.328125 C 146.949219 92.152344 147.992188 90.796875 148.796875 89.261719 C 149.515625 87.699219 149.625 85.757812 148.6875 84.339844 C 148.183594 83.578125 147.183594 82.992188 146.335938 83.367188 C 146.050781 83.527344 145.820312 83.742188 145.644531 84.023438 C 145.464844 84.300781 145.367188 84.601562 145.347656 84.929688 C 145.316406 85.582031 145.363281 86.222656 145.492188 86.859375 C 145.675781 88.265625 145.636719 89.664062 145.375 91.054688 C 145.117188 92.449219 144.648438 93.765625 143.96875 95.007812 " fill-opacity="1" fill-rule="nonzero"/></g></g></g><g clip-path="url(#639b1cda91)"><g clip-path="url(#b665e5bd20)"><g clip-path="url(#c99e8eab99)"><path fill="#000000" d="M 143.871094 94 C 145.199219 92.628906 146.8125 91.261719 147.734375 89.523438 C 148.230469 88.679688 148.5 87.769531 148.535156 86.789062 C 148.566406 85.9375 148.300781 85.1875 147.746094 84.542969 C 146.53125 84.660156 146.011719 85.117188 146.191406 85.898438 C 146.007812 87.351562 146.503906 88.925781 146.300781 90.449219 C 146.054688 92.207031 145.515625 93.871094 144.683594 95.441406 C 144.199219 96.394531 142.746094 95.597656 143.230469 94.644531 C 144.304688 92.625 144.8125 90.472656 144.753906 88.1875 C 144.707031 86.867188 144.226562 85.433594 144.695312 84.140625 C 144.757812 83.960938 144.835938 83.792969 144.933594 83.632812 C 145.035156 83.476562 145.152344 83.328125 145.285156 83.199219 C 145.417969 83.066406 145.5625 82.949219 145.722656 82.851562 C 145.882812 82.753906 146.050781 82.679688 146.230469 82.621094 C 146.40625 82.5625 146.589844 82.523438 146.773438 82.511719 C 146.960938 82.496094 147.144531 82.5 147.332031 82.527344 C 147.515625 82.558594 147.695312 82.605469 147.867188 82.675781 C 148.039062 82.746094 148.203125 82.835938 148.355469 82.945312 C 150.085938 84.039062 150.421875 86.425781 150.011719 88.285156 C 149.34375 91.105469 146.976562 93.214844 145.054688 95.199219 C 144.890625 95.363281 144.691406 95.445312 144.460938 95.445312 C 144.226562 95.445312 144.03125 95.359375 143.867188 95.195312 C 143.703125 95.03125 143.621094 94.828125 143.625 94.597656 C 143.625 94.363281 143.707031 94.164062 143.871094 94 Z M 143.871094 94 " fill-opacity="1" fill-rule="nonzero"/></g></g></g><g fill="#000000" fill-opacity="1"><g transform="translate(52.386009, 194.75267)"><g><path d="M 4.335938 -144.472656 L 4.335938 -143.027344 C 16.757812 -143.027344 17.625 -132.769531 17.625 -104.308594 L 17.625 -40.164062 C 17.625 -11.703125 16.757812 -1.445312 4.335938 -1.445312 L 4.335938 0 L 21.671875 0 C 37.5625 0 47.820312 2.890625 64.578125 2.890625 C 95.351562 2.890625 112.542969 -13.871094 112.542969 -38.863281 C 112.542969 -60.824219 94.484375 -74.980469 72.378906 -74.980469 C 58.511719 -74.980469 48.398438 -66.167969 42.332031 -66.167969 C 40.597656 -66.167969 38.140625 -66.601562 38.140625 -69.925781 C 38.140625 -85.960938 103.441406 -83.070312 103.441406 -120.777344 C 103.441406 -141.003906 84.804688 -147.363281 64.433594 -147.363281 C 51.722656 -147.363281 33.804688 -144.472656 21.09375 -144.472656 Z M 29.90625 -141.292969 C 38.285156 -143.894531 46.664062 -145.339844 56.054688 -145.339844 C 73.679688 -145.339844 91.019531 -138.40625 91.019531 -120.488281 C 91.019531 -91.304688 36.695312 -88.5625 36.695312 -69.636719 C 36.695312 -66.167969 39.152344 -64.722656 41.753906 -64.722656 C 50.277344 -64.722656 60.101562 -73.390625 72.234375 -73.390625 C 90.296875 -73.390625 100.121094 -55.1875 100.121094 -37.851562 C 100.121094 -13.871094 83.214844 0.867188 56.34375 0.867188 C 45.652344 0.867188 38.71875 -0.578125 29.90625 -3.757812 Z M 29.90625 -141.292969 "/></g></g></g></svg>